<?xml version="1.0" encoding="UTF-8"?>
<svg id="Layer_1" data-name="Layer 1" xmlns="http://www.w3.org/2000/svg" viewBox="0 0 870.49 431.13">
  <defs>
    <style>
      .cls-1 {
        fill: #5393ce;
      }

      .cls-1, .cls-2, .cls-3 {
        stroke-width: 0px;
      }

      .cls-2 {
        fill: #199cc7;
      }

      .cls-3 {
        fill: #23438c;
      }
    </style>
  </defs>
  <g>
    <g>
      <polygon class="cls-2" points="291.28 86.84 265.26 86.84 288.67 125.78 303.19 105.07 291.28 86.84"/>
      <polygon class="cls-2" points="372.53 51.86 347.57 51.86 312.14 105.94 312.14 105.94 307.94 112.35 307.9 112.3 284.24 147.84 218.8 245.45 243.11 245.45 372.53 51.86"/>
      <polygon class="cls-2" points="312.14 160.33 324.65 179.5 350.67 179.5 326.2 138.54 312.14 160.33"/>
      <polygon class="cls-1" points="312.14 105.94 312.14 105.94 312.14 105.94 312.14 105.94"/>
    </g>
    <g>
      <path class="cls-3" d="m331.87,215.53v-.06h2.01c16.37,0,30.04,5.54,39.3,13.62,8.7,8.37,13.01,19.41,13.01,32.8s-4.31,24.39-13.01,32.69c-11.47,9.02-26.12,13.56-43.33,13.56h-26.67v-92.61h28.69Zm1.95,22.42h-5.96l.22,47.6h2.5c18.36,0,29.93-8.13,32.03-23.8,0-15.42-12.58-23.8-28.78-23.8Z"/>
      <path class="cls-3" d="m394.24,215.24h63.92v22.59h-40.19v12.65h30.88v22.59h-30.88v12.65h40.19v22.54h-63.92v-93.01Z"/>
      <path class="cls-3" d="m470.86,215.24l44.79,58.9,44.73-58.9h4.65v92.9h-22.65v-34.2l-26.73,34.13-26.79-34.14v34.22h-22.65v-92.9h4.65Z"/>
      <path class="cls-3" d="m622.39,214.72c14.19,0,24.78,4.66,34.92,13.85,9.6,9.19,14.46,20.38,14.46,33.28s-4.86,24.11-14.47,33.23c-10.1,9.08-20.69,13.68-34.92,13.68-14.27-.04-24.85-4.63-34.91-13.68-9.57-9.16-14.4-20.33-14.4-33.23s4.83-24.05,14.4-33.28c10.14-9.2,20.73-13.85,34.92-13.85Zm0,22.82c-7.79,0-12.48,2.33-17.86,7.09-5.48,4.85-8.14,10.47-8.14,17.11s2.67,12.33,8.13,17.1c5.42,4.73,10.12,7.04,17.87,7.04s12.31-2.31,17.82-7.05c5.5-4.73,8.18-10.34,8.18-17.09s-2.68-12.29-8.19-17.1c-5.47-4.77-10.15-7.1-17.81-7.1Z"/>
    </g>
    <path class="cls-3" d="m190.29,86.61h63.92v22.59h-40.19v12.65h30.88v22.59h-30.88v12.65h40.19v22.54h-63.92v-93.01Z"/>
    <path class="cls-3" d="m363.93,179.5v-92.67h36.56c10.43,0,19.49,3.3,26.43,9.78,6.75,6.51,10.19,14.51,10.19,23.7s-3.45,17.24-10.2,23.61c-7.09,6.46-16.35,9.77-26.95,9.77h-13.38v25.81h-22.65Zm36.56-70.19h-13.07v21.91l13.07.04c6.66,0,13.13-4.58,13.13-10.95s-6.51-11.01-13.13-11.01Z"/>
    <path class="cls-3" d="m450.01,86.61h63.92v22.59h-40.19v12.65h30.88v22.59h-30.88v12.65h40.19v22.54h-63.92v-93.01Z"/>
    <path class="cls-3" d="m525.92,179.5l-.06-92.67h33.88c5.52,0,10.91.78,16.13,2.35,4.54,1.58,8.51,4,11.94,7.25,5.85,5.61,9.56,11.12,9.56,21.53v2.31c0,6.4-2.11,12.45-6.24,18.03-2.95,3.96-5.42,5.99-9.76,7.96l22.27,33.23h-27.54l-27.54-36.21v36.21h-22.65Zm47.89-59.61c0-2.86-1.19-5.3-3.63-7.49-2.41-1.98-7.56-3.08-11.79-3.08h-9.89v21.56h8.41v.06h4.92c6.2,0,11.98-4.65,11.98-11.04Z"/>
    <path class="cls-3" d="m607.88,86.84h72.32v22.48h-23.63l.87,70.19h-25.58l-.28-70.19h-23.7v-22.48Z"/>
  </g>
  <g>
    <path class="cls-3" d="m306.61,344.95l-10.6,33.77h5.69l2.28-7.98h10.92l2.19,7.98h5.73l-10.32-33.77h-5.89Zm6.88,20.98h-8.14l4.15-13.75,3.99,13.75Z"/>
    <path class="cls-3" d="m349.26,344.95h-8.36v33.77h8.36c5.14,0,8.44-.27,10.92-3.99,1.73-2.54,2.04-6.21,2.04-12.53,0-7.59-.15-12.02-3.16-14.84-2.38-2.25-5.29-2.41-9.81-2.41Zm1.09,29.09h-4.14v-24.6h4.14c3.59,0,5.18.87,6.09,3.35.23.59.6,3.5.6,8.81,0,4.95-.21,8.62-1.26,10.39-.87,1.46-2.44,2.05-5.43,2.05Z"/>
    <rect class="cls-3" x="368.84" y="344.95" width="5.36" height="33.77"/>
    <path class="cls-3" d="m391.52,369.83c-.18.67-.37,1.59-.62,2.75,0,0,0,.02,0,.02-.17-.78-.36-1.58-.56-2.41l-6.07-25.26h-5.91l9.57,33.77h5.91l9.57-33.77h-5.54l-6.34,24.89Z"/>
    <rect class="cls-3" x="407.55" y="344.95" width="5.36" height="33.77"/>
    <path class="cls-3" d="m432.85,360.89c-.65-.42-1.26-.81-1.84-1.18-4.09-2.61-6.34-4.05-6.34-6.95,0-2.32,1.95-4,4.64-4,2.94,0,4.36,1.59,4.36,4.86v1.16h5.45v-1.29c0-5.86-3.42-9.09-9.64-9.09s-10.18,3.56-10.18,8.86c0,4.93,2.73,6.92,7.56,10.02l1.34.84c3.79,2.37,5.88,3.67,5.88,6.25s-2.12,4.55-5.05,4.55c-3.1,0-4.36-1.61-4.36-5.55v-1.06h-5.73v.47c0,.18-.01.34-.02.5-.01.17-.02.33-.02.5,0,6.3,3.38,9.5,10.04,9.5s10.5-3.48,10.5-9.54c0-4.21-2.61-6.23-6.6-8.83Z"/>
    <rect class="cls-3" x="446.47" y="344.95" width="5.36" height="33.77"/>
    <path class="cls-3" d="m469.6,344.44c-4.31,0-7.47,1.58-9.16,4.57-1.62,2.8-1.75,7.27-1.75,12.82,0,6.73.2,11.37,2.81,14.31,1.81,2.01,4.69,3.12,8.1,3.12,4.24,0,7.41-1.59,9.16-4.61h0c1.47-2.55,1.75-6.5,1.75-12.46,0-7.1-.19-11.63-2.81-14.63-1.81-2.01-4.69-3.12-8.1-3.12Zm-4.12,6.57c.84-1.27,2.26-1.93,4.08-1.93,5.07,0,5.6,3.89,5.6,12.75s-.53,12.8-5.6,12.8c-2.28,0-3.75-.94-4.63-2.95-.81-1.89-.87-5.12-.87-9.85,0-5.22,0-8.66,1.42-10.82Z"/>
    <path class="cls-3" d="m505.47,368.44c0,1.1.02,2.23.06,3.38l-11.18-26.87h-6.94v33.77h4.86v-24.14c0-.88-.05-1.97-.14-3.35l11.5,27.21.12.29h6.66v-33.77h-4.95v23.5Z"/>
    <path class="cls-3" d="m541.45,344.44c-4.31,0-7.47,1.58-9.16,4.57-1.62,2.8-1.75,7.27-1.75,12.82,0,6.73.2,11.37,2.81,14.31,1.81,2.01,4.69,3.12,8.1,3.12,4.24,0,7.41-1.59,9.16-4.61h0c1.47-2.55,1.75-6.5,1.75-12.46,0-7.1-.19-11.63-2.81-14.63-1.81-2.01-4.69-3.12-8.1-3.12Zm-4.12,6.57c.84-1.27,2.26-1.93,4.08-1.93,5.07,0,5.6,3.89,5.6,12.75s-.53,12.8-5.6,12.8c-2.28,0-3.75-.94-4.63-2.95-.81-1.89-.87-5.12-.87-9.85,0-5.22,0-8.66,1.42-10.82Z"/>
    <polygon class="cls-3" points="559.26 378.72 564.53 378.72 564.53 363.72 575.42 363.72 575.42 359.08 564.53 359.08 564.53 349.49 575.97 349.49 575.97 344.95 559.26 344.95 559.26 378.72"/>
    <path class="cls-3" d="m609.54,344.95h-5.89l-10.6,33.77h5.69l2.28-7.98h10.92l2.19,7.98h5.73l-10.22-33.44-.1-.33Zm.99,20.98h-8.14l4.15-13.75,3.99,13.75Z"/>
    <polygon class="cls-3" points="629.94 344.95 624.72 344.95 624.72 378.72 641.16 378.72 641.16 373.99 629.94 373.99 629.94 344.95"/>
    <path class="cls-3" d="m664.49,347.35c-2.38-2.25-5.3-2.41-9.81-2.41h-8.36v33.77h8.36c5.14,0,8.44-.27,10.92-3.99,1.73-2.54,2.04-6.21,2.04-12.53,0-7.59-.15-12.02-3.16-14.84Zm-8.71,26.68h-4.14v-24.6h4.14c3.59,0,5.18.87,6.09,3.35.24.59.61,3.51.61,8.81,0,4.95-.21,8.61-1.26,10.39-.87,1.46-2.44,2.05-5.43,2.05Z"/>
  </g>
</svg>