<?xml version="1.0" encoding="UTF-8"?>
<svg id="Layer_1" data-name="Layer 1" xmlns="http://www.w3.org/2000/svg" viewBox="0 0 870.49 431.13">
  <defs>
    <style>
      .cls-1 {
        fill: #199cc7;
      }

      .cls-1, .cls-2 {
        stroke-width: 0px;
      }

      .cls-2 {
        fill: #23438c;
      }
    </style>
  </defs>
  <g>
    <path class="cls-2" d="m312.2,88.57h-8.88l-74.17,153.61h40.71l11.4-23.37h53l11.4,23.37h40.81l-74.27-153.61Zm5.48,99.61h-24.56l14.75-30.79,14.56,30.79h-4.75Z"/>
    <path class="cls-2" d="m408.85,88.38h37.59v116.39h68.5v37.4h-106.09V88.38Z"/>
    <path class="cls-1" d="m617.5,110.99c-15.37-13.4-38.07-22.61-65.23-22.61h-3.34v.1h-47.61v56.21h41.04l-.09-19h9.9c26.9,0,47.77,13.9,47.77,39.5-3.49,26-22.68,39.5-53.16,39.5h-3.98v37.5h2.79c28.55,0,52.87-7.53,71.9-22.51,14.43-13.77,23.84-32.04,23.84-54.25s-9.4-40.53-23.84-54.43Z"/>
  </g>
  <g>
    <path class="cls-2" d="m287.55,313.03c-1.06-.69-2.06-1.33-3.01-1.94-6.78-4.33-10.51-6.71-10.51-11.61,0-3.94,3.3-6.8,7.85-6.8,4.91,0,7.4,2.77,7.4,8.22v1.66h8.48v-1.88c0-9.47-5.53-14.68-15.58-14.68s-16.47,5.75-16.47,14.3c0,7.98,4.21,11.05,12.3,16.24.76.48,1.5.94,2.2,1.38,6.08,3.8,9.75,6.09,9.75,10.44s-3.58,7.7-8.52,7.7c-5.26,0-7.4-2.71-7.4-9.34v-1.51h-8.92v.53c0,.3-.02.57-.04.84-.02.27-.04.54-.04.8,0,10.19,5.47,15.35,16.25,15.35s17-5.62,17-15.43c0-6.79-4.24-10.07-10.72-14.29Z"/>
    <polygon class="cls-2" points="314.12 341.85 342.13 341.85 342.13 334.87 322.3 334.87 322.3 317.23 341.53 317.23 341.53 310.1 322.3 310.1 322.3 293.88 342.13 293.88 342.13 286.9 314.12 286.9 314.12 341.85"/>
    <path class="cls-2" d="m386.5,330.32c0-.73.02-1.5.03-2.33.02-.97.04-2.01.04-3.13,0-6.02-1.13-10.11-6.42-11.46,5.17-2.15,7.69-6.42,7.69-13.01,0-9.32-5.24-13.48-17-13.48h-14.68v54.95h8.18v-24.62h8c4.27,0,5.75,1.87,5.9,7.42.06,1.6.07,3.15.08,4.66.04,4.36.08,8.47,1.21,12.17l.12.38h8.44l-.2-.68c-.94-3.26-1.4-6.81-1.4-10.85Zm-6.83-29.03c0,6.42-3.08,9.04-10.61,9.04h-4.71v-16.74h7.47c5.35,0,7.85,2.45,7.85,7.7Z"/>
    <path class="cls-2" d="m420.77,327.56c-.28,1.09-.6,2.56-.99,4.42-.08.38-.17.78-.25,1.2-.34-1.6-.73-3.25-1.13-4.96l-9.92-41.32h-9.21l15.46,54.56.11.39h9.34l15.57-54.95h-8.6l-10.35,40.66Z"/>
    <rect class="cls-2" x="450.84" y="286.9" width="8.33" height="54.95"/>
    <path class="cls-2" d="m499.1,325.3c0,7.19-2.42,10.54-7.62,10.54-7.55,0-8.82-6.18-8.82-20.04,0-9.99.1-16.27,2.02-19.33,1.38-2.28,3.73-3.48,6.8-3.48,4.89,0,7.17,2.87,7.17,9.04v1.36h8.63v-.53c0-10.72-5.53-16.62-15.58-16.62-6.23,0-11.25,2.36-13.77,6.46-2.95,4.76-3.52,11.11-3.52,20.49,0,13.49.89,21.16,5.78,25.68,2.55,2.39,6.88,3.81,11.59,3.81,9.94,0,15.88-6.27,15.88-16.77v-1.73h-8.55v1.13Z"/>
    <polygon class="cls-2" points="522.97 341.85 550.98 341.85 550.98 334.87 531.15 334.87 531.15 317.23 550.38 317.23 550.38 310.1 531.15 310.1 531.15 293.88 550.98 293.88 550.98 286.9 522.97 286.9 522.97 341.85"/>
    <path class="cls-2" d="m585.54,313.03c-1.06-.69-2.06-1.33-3.02-1.94-6.78-4.33-10.51-6.71-10.51-11.61,0-3.94,3.3-6.8,7.85-6.8,4.91,0,7.39,2.77,7.39,8.22v1.66h8.48v-1.88c0-9.47-5.53-14.68-15.58-14.68s-16.47,5.75-16.47,14.3c0,7.98,4.22,11.05,12.3,16.24.76.48,1.5.94,2.2,1.38,6.08,3.8,9.75,6.09,9.75,10.44s-3.58,7.7-8.52,7.7c-5.25,0-7.4-2.71-7.4-9.34v-1.51h-8.93v.53c0,.3-.02.57-.04.84-.02.27-.04.54-.04.8,0,10.19,5.47,15.35,16.25,15.35s17-5.62,17-15.43c0-6.79-4.25-10.07-10.72-14.29Z"/>
  </g>
</svg>