<?xml version="1.0" encoding="UTF-8"?>
<svg id="Layer_1" data-name="Layer 1" xmlns="http://www.w3.org/2000/svg" viewBox="0 0 1258 584">
  <defs>
    <style>
      .cls-1 {
        fill: #1f499e;
      }

      .cls-1, .cls-2, .cls-3, .cls-4 {
        stroke-width: 0px;
      }

      .cls-2 {
        fill: #80c241;
      }

      .cls-3 {
        fill: #efeff1;
      }

      .cls-4 {
        fill: #00a7d8;
      }
    </style>
  </defs>
  <path class="cls-2" d="m-.28,187.67l37.51,134.92,120.23-56.98-45.68-22.57c175.75-186.28,337.2,35.78,337.2,35.78-2.81-12.9-27.27-117.09-122.21-162.87-70.25-33.87-135.55-14.77-157.33-7.07-72.89,25.78-109.89,83.66-120.92,102.9L-.28,187.67Z"/>
  <polygon class="cls-1" points="86.95 494.26 151.96 494.26 151.96 384.81 86.95 399.16 86.95 494.26"/>
  <polygon class="cls-4" points="228.03 521.66 151.96 521.66 151.96 384.81 228.03 402.76 228.03 521.66"/>
  <polygon class="cls-1" points="194.37 521.66 242.65 521.66 242.65 .32 194.37 29.39 194.37 521.66"/>
  <polygon class="cls-4" points="345.51 521.66 242.65 521.66 242.65 .32 345.51 86.33 345.51 521.66"/>
  <polygon class="cls-1" points="273.96 521.66 331.96 521.66 331.96 237.22 273.96 254.91 273.96 521.66"/>
  <polygon class="cls-4" points="419 474.01 331.96 521.66 331.96 237.22 419 304.32 419 474.01"/>
  <path class="cls-2" d="m487.98,492.53l-37.51-134.92-120.23,56.98,45.68,22.57c-175.75,186.28-337.2-35.78-337.2-35.78,2.81,12.9,27.27,117.09,122.21,162.87,70.25,33.87,135.55,14.77,157.33,7.07,72.89-25.78,109.89-83.66,120.92-102.9l48.8,24.11Z"/>
  <g>
    <g>
      <path class="cls-3" d="m623.33,435.9c-.61-2.91-1.45-5.59-2.52-8.03-1.07-2.44-2.44-4.56-4.11-6.34-1.68-1.78-3.64-3.17-5.88-4.16-2.25-.99-4.86-1.48-7.83-1.48-4.34,0-8.09,1.08-11.26,3.24-3.16,2.16-5.73,5.05-7.71,8.67-1.98,3.62-3.45,7.73-4.4,12.33-.95,4.6-1.43,9.3-1.43,14.09s.48,9.49,1.43,14.09c.95,4.6,2.42,8.71,4.4,12.33,1.98,3.62,4.55,6.51,7.71,8.67,3.16,2.16,6.91,3.24,11.26,3.24,3.2,0,6.02-.68,8.45-2.04,2.44-1.36,4.53-3.24,6.28-5.64,1.75-2.4,3.12-5.19,4.11-8.38.99-3.19,1.64-6.62,1.94-10.29h13.94c-.3,6.01-1.35,11.51-3.14,16.49-1.79,4.98-4.21,9.28-7.25,12.89-3.05,3.62-6.63,6.41-10.74,8.38-4.11,1.97-8.65,2.96-13.6,2.96-6.1,0-11.56-1.39-16.4-4.16-4.84-2.77-8.93-6.55-12.28-11.34-3.35-4.79-5.92-10.38-7.71-16.77-1.79-6.39-2.68-13.2-2.68-20.43s.89-13.9,2.68-20.29c1.79-6.39,4.36-11.98,7.71-16.77,3.35-4.79,7.44-8.6,12.28-11.41,4.84-2.82,10.3-4.23,16.4-4.23,4.57,0,8.87.78,12.91,2.32,4.04,1.55,7.6,3.81,10.68,6.76,3.09,2.96,5.58,6.55,7.48,10.78,1.9,4.23,3.09,9.07,3.54,14.51h-14.28Z"/>
      <path class="cls-3" d="m685.49,401.51c6.09,0,11.56,1.41,16.39,4.23,4.84,2.82,8.93,6.62,12.29,11.41,3.35,4.79,5.92,10.38,7.71,16.77,1.79,6.39,2.69,13.15,2.69,20.29s-.9,14.04-2.69,20.43c-1.79,6.39-4.36,11.98-7.71,16.77-3.35,4.79-7.45,8.57-12.29,11.34-4.84,2.77-10.3,4.16-16.39,4.16s-11.56-1.39-16.4-4.16c-4.84-2.77-8.93-6.55-12.28-11.34-3.35-4.79-5.92-10.38-7.71-16.77-1.79-6.39-2.68-13.2-2.68-20.43s.89-13.9,2.68-20.29c1.79-6.39,4.36-11.98,7.71-16.77,3.35-4.79,7.44-8.6,12.28-11.41,4.84-2.82,10.3-4.23,16.4-4.23Zm0,14.37c-4.34,0-8.09,1.08-11.26,3.24-3.16,2.16-5.73,5.05-7.71,8.67-1.98,3.62-3.45,7.73-4.4,12.33-.95,4.6-1.43,9.3-1.43,14.09s.48,9.49,1.43,14.09c.95,4.6,2.42,8.71,4.4,12.33,1.98,3.62,4.55,6.51,7.71,8.67,3.16,2.16,6.91,3.24,11.26,3.24s8.09-1.08,11.25-3.24c3.16-2.16,5.73-5.05,7.71-8.67,1.98-3.61,3.45-7.73,4.4-12.33.95-4.6,1.43-9.3,1.43-14.09s-.48-9.49-1.43-14.09c-.95-4.6-2.42-8.71-4.4-12.33-1.98-3.62-4.55-6.5-7.71-8.67-3.16-2.16-6.91-3.24-11.25-3.24Z"/>
      <path class="cls-3" d="m737.59,403.91h38.96c8.99,0,15.73,2.4,20.22,7.19,4.5,4.79,6.74,11.46,6.74,20.01,0,4.79-.57,8.76-1.71,11.91-1.14,3.15-2.48,5.69-4,7.61-1.53,1.93-3.03,3.31-4.51,4.16-1.49.85-2.57,1.41-3.26,1.69v.28c1.22.19,2.53.66,3.94,1.41,1.41.75,2.72,1.95,3.94,3.59,1.22,1.65,2.23,3.78,3.03,6.41.8,2.63,1.2,5.92,1.2,9.86,0,5.92.36,11.3,1.08,16.13.72,4.84,1.85,8.29,3.37,10.36h-15.31c-1.07-2.16-1.7-4.56-1.89-7.19-.19-2.63-.29-5.17-.29-7.61,0-4.6-.23-8.57-.69-11.91-.46-3.33-1.3-6.11-2.52-8.31-1.22-2.21-2.88-3.83-4.97-4.86-2.1-1.03-4.78-1.55-8.06-1.55h-21.02v41.43h-14.28v-100.61Zm14.28,45.79h23.42c4.57,0,8.04-1.34,10.4-4.02,2.36-2.68,3.54-6.69,3.54-12.05,0-3.19-.38-5.8-1.14-7.82-.76-2.02-1.81-3.59-3.14-4.72-1.33-1.13-2.86-1.88-4.57-2.25-1.71-.37-3.49-.56-5.31-.56h-23.2v31.42Z"/>
      <path class="cls-3" d="m818.03,403.91h35.99c5.79,0,10.51,1.03,14.17,3.1,3.66,2.07,6.47,4.65,8.45,7.75,1.98,3.1,3.33,6.48,4.06,10.14.72,3.66,1.08,7.04,1.08,10.14s-.36,6.46-1.08,10.07c-.72,3.62-2.08,6.98-4.06,10.07-1.98,3.1-4.8,5.66-8.45,7.68-3.66,2.02-8.38,3.03-14.17,3.03h-21.71v38.61h-14.28v-100.61Zm14.28,47.63h20.91c1.6,0,3.24-.28,4.91-.85,1.68-.56,3.22-1.48,4.63-2.75,1.41-1.27,2.55-2.96,3.43-5.07.87-2.11,1.31-4.77,1.31-7.96s-.38-6.01-1.14-8.17c-.76-2.16-1.79-3.88-3.09-5.14-1.29-1.27-2.78-2.14-4.46-2.61-1.68-.47-3.47-.7-5.37-.7h-21.14v33.25Z"/>
      <path class="cls-3" d="m928.98,401.51c6.09,0,11.56,1.41,16.39,4.23,4.84,2.82,8.93,6.62,12.29,11.41,3.35,4.79,5.92,10.38,7.71,16.77,1.79,6.39,2.69,13.15,2.69,20.29s-.9,14.04-2.69,20.43c-1.79,6.39-4.36,11.98-7.71,16.77-3.35,4.79-7.45,8.57-12.29,11.34-4.84,2.77-10.3,4.16-16.39,4.16s-11.56-1.39-16.4-4.16c-4.84-2.77-8.93-6.55-12.28-11.34-3.35-4.79-5.92-10.38-7.71-16.77-1.79-6.39-2.68-13.2-2.68-20.43s.89-13.9,2.68-20.29c1.79-6.39,4.36-11.98,7.71-16.77,3.35-4.79,7.44-8.6,12.28-11.41,4.84-2.82,10.3-4.23,16.4-4.23Zm0,14.37c-4.34,0-8.09,1.08-11.26,3.24-3.16,2.16-5.73,5.05-7.71,8.67-1.98,3.62-3.45,7.73-4.4,12.33-.95,4.6-1.43,9.3-1.43,14.09s.48,9.49,1.43,14.09c.95,4.6,2.42,8.71,4.4,12.33,1.98,3.62,4.55,6.51,7.71,8.67,3.16,2.16,6.91,3.24,11.26,3.24s8.09-1.08,11.25-3.24c3.16-2.16,5.73-5.05,7.71-8.67,1.98-3.61,3.45-7.73,4.4-12.33.95-4.6,1.43-9.3,1.43-14.09s-.48-9.49-1.43-14.09c-.95-4.6-2.42-8.71-4.4-12.33-1.98-3.62-4.55-6.5-7.71-8.67-3.16-2.16-6.91-3.24-11.25-3.24Z"/>
      <path class="cls-3" d="m981.08,403.91h38.96c8.99,0,15.73,2.4,20.22,7.19,4.5,4.79,6.74,11.46,6.74,20.01,0,4.79-.57,8.76-1.71,11.91-1.14,3.15-2.48,5.69-4,7.61-1.53,1.93-3.03,3.31-4.51,4.16-1.49.85-2.57,1.41-3.26,1.69v.28c1.22.19,2.53.66,3.94,1.41,1.41.75,2.72,1.95,3.94,3.59,1.22,1.65,2.23,3.78,3.03,6.41.8,2.63,1.2,5.92,1.2,9.86,0,5.92.36,11.3,1.08,16.13.72,4.84,1.85,8.29,3.37,10.36h-15.31c-1.07-2.16-1.7-4.56-1.89-7.19-.19-2.63-.29-5.17-.29-7.61,0-4.6-.23-8.57-.69-11.91-.46-3.33-1.3-6.11-2.52-8.31-1.22-2.21-2.88-3.83-4.97-4.86-2.1-1.03-4.78-1.55-8.06-1.55h-21.02v41.43h-14.28v-100.61Zm14.28,45.79h23.42c4.57,0,8.04-1.34,10.4-4.02,2.36-2.68,3.54-6.69,3.54-12.05,0-3.19-.38-5.8-1.14-7.82-.76-2.02-1.81-3.59-3.14-4.72-1.33-1.13-2.86-1.88-4.57-2.25-1.71-.37-3.49-.56-5.31-.56h-23.2v31.42Z"/>
      <path class="cls-3" d="m1083.35,403.91h15.2l31.42,100.61h-15.31l-7.66-26.63h-32.56l-7.66,26.63h-14.74l31.31-100.61Zm-5.03,60.59h24.91l-12.23-43.26h-.34l-12.34,43.26Z"/>
      <path class="cls-3" d="m1119.45,403.91h66.04v15.22h-25.94v85.39h-14.28v-85.39h-25.82v-15.22Z"/>
      <path class="cls-3" d="m1194.98,403.91h58.73v15.22h-44.45v26.35h41.13v14.37h-41.13v29.45h45.25v15.22h-59.53v-100.61Z"/>
    </g>
    <path class="cls-3" d="m806.52,299.61l-23.82-46.88-58.51-115.12-30.32-59.64-30.32,59.64-58.48,115.12-23.84,46.88-21.67,42.63h60.61l21.67-42.63h104.06l21.67,42.63h60.61l-21.67-42.63Zm-140.83-46.88l28.19-55.48,28.19,55.48h-56.38Z"/>
    <polygon class="cls-3" points="1045.55 282.72 1045.55 342.24 865.12 342.24 865.12 81.18 924.64 81.18 924.64 282.72 1045.55 282.72"/>
    <path class="cls-4" d="m1258.28,211.66c0,72.12-58.43,130.57-130.55,130.57h-38.52v-65.17h38.52c36.11,0,65.4-29.28,65.4-65.4s-29.3-65.38-65.4-65.38l-38.52-.52v27.24h-68.29v-91.82h110.84c70.25,2.13,126.51,59.73,126.51,130.48Z"/>
  </g>
</svg>